<?xml version="1.0" encoding="utf-8"?>
<!-- Generator: Adobe Illustrator 21.1.0, SVG Export Plug-In . SVG Version: 6.00 Build 0)  -->
<svg version="1.1" xmlns="http://www.w3.org/2000/svg" xmlns:xlink="http://www.w3.org/1999/xlink" x="0px" y="0px"
	 viewBox="0 0 166 94" style="enable-background:new 0 0 166 94;" xml:space="preserve">
<style type="text/css">
	.st0{fill:#8B4D28;}
	.st1{fill:none;}
	.st2{fill:#FFFFFF;}
	.st3{font-family:'Montserrat-Bold';}
	.st4{font-size:13.0196px;}
	.st5{fill:#BB9574;}
</style>
<g id="Ship">
	<g>
		<polygon class="st0" points="0,43.8 166,43.8 144.3,93.7 21.7,93.7 		"/>
	</g>
	<rect x="98.7" y="6.9" class="st0" width="58.6" height="36.9"/>
	<rect x="105.2" y="0.4" class="st0" width="45.6" height="6.5"/>
	<rect x="57.5" y="65.5" class="st1" width="52.1" height="10.8"/>
	<text transform="matrix(1 0 0 1 57.5039 75.1377)" class="st2 st3 st4">CARGO</text>
	<rect x="106.3" y="14.5" class="st2" width="14.1" height="7.6"/>
	<rect x="134.5" y="14.5" class="st2" width="14.1" height="7.6"/>
	<rect x="106.3" y="29.7" class="st2" width="14.1" height="7.6"/>
	<rect x="134.5" y="29.7" class="st2" width="14.1" height="7.6"/>
</g>
<g id="Cargo_1">
	<rect x="21.7" y="30.6" class="st5" width="27.1" height="13.2"/>
	<rect x="53.7" y="30.6" class="st5" width="27.1" height="13.2"/>
</g>
<g id="Cargo_2">
	<rect x="21.7" y="16.7" class="st5" width="27.1" height="13.2"/>
	<rect x="53.7" y="16.7" class="st5" width="27.1" height="13.2"/>
</g>
</svg>
