<?xml version="1.0" encoding="utf-8"?>
<!-- Generator: Adobe Illustrator 21.1.0, SVG Export Plug-In . SVG Version: 6.00 Build 0)  -->
<svg version="1.1" xmlns="http://www.w3.org/2000/svg" xmlns:xlink="http://www.w3.org/1999/xlink" x="0px" y="0px"
	 viewBox="0 0 166 81" style="enable-background:new 0 0 166 81;" xml:space="preserve">
<style type="text/css">
	.st0{fill:#4A2514;}
	.st1{fill:#8B4D28;}
</style>
<g id="Craze">
	<path class="st0" d="M19.8,79.7c-2.3-1.3-4.2-3-5.5-5.2c-1.3-2.2-2-4.7-2-7.6c0-2.8,0.7-5.3,2-7.6s3.2-4,5.5-5.2
		c2.3-1.3,5-1.9,7.9-1.9c2.5,0,4.7,0.4,6.7,1.3c2,0.9,3.7,2.1,5,3.7l-4.2,3.9c-1.9-2.2-4.3-3.3-7.1-3.3c-1.8,0-3.3,0.4-4.7,1.2
		c-1.4,0.8-2.5,1.8-3.2,3.2c-0.8,1.4-1.2,2.9-1.2,4.7c0,1.8,0.4,3.3,1.2,4.7c0.8,1.4,1.8,2.5,3.2,3.2c1.4,0.8,2.9,1.2,4.7,1.2
		c2.8,0,5.2-1.1,7.1-3.4l4.2,3.9c-1.4,1.6-3,2.9-5,3.8c-2,0.9-4.2,1.3-6.7,1.3C24.7,81.6,22.1,80.9,19.8,79.7z"/>
	<path class="st0" d="M61.8,81.1l-5.5-7.9H56h-5.7v7.9h-6.6V52.7H56c2.5,0,4.7,0.4,6.5,1.3c1.9,0.8,3.3,2,4.3,3.6
		c1,1.5,1.5,3.4,1.5,5.5s-0.5,3.9-1.5,5.4c-1,1.5-2.5,2.7-4.3,3.5l6.4,9.1H61.8z M60.2,59.3c-1-0.9-2.5-1.3-4.5-1.3h-5.3v9.9h5.3
		c2,0,3.5-0.4,4.5-1.3c1-0.9,1.5-2.1,1.5-3.6C61.7,61.4,61.2,60.2,60.2,59.3z"/>
	<path class="st0" d="M92.2,75H79l-2.5,6.1h-6.7l12.6-28.4h6.5l12.7,28.4h-6.9L92.2,75z M90.2,70l-4.5-10.9L81.2,70H90.2z"/>
	<path class="st0" d="M127.5,75.7v5.3h-24.8v-4.3l15.6-18.8h-15.2v-5.3h23.9V57l-15.5,18.8H127.5z"/>
	<path class="st0" d="M153.7,75.8v5.3h-22V52.7h21.4V58h-14.9v6.2h13.2v5.1h-13.2v6.6H153.7z"/>
</g>
<g id="Coffee">
	<path class="st0" d="M7.5,47.9c-2.3-1.3-4.2-3-5.5-5.2c-1.3-2.2-2-4.7-2-7.6c0-2.8,0.7-5.3,2-7.6s3.2-4,5.5-5.2
		c2.3-1.3,5-1.9,7.9-1.9c2.5,0,4.7,0.4,6.7,1.3c2,0.9,3.7,2.1,5,3.7l-4.2,3.9c-1.9-2.2-4.3-3.3-7.1-3.3c-1.8,0-3.3,0.4-4.7,1.2
		C9.6,28,8.6,29,7.8,30.4c-0.8,1.4-1.2,2.9-1.2,4.7c0,1.8,0.4,3.3,1.2,4.7c0.8,1.4,1.8,2.5,3.2,3.2c1.4,0.8,2.9,1.2,4.7,1.2
		c2.8,0,5.2-1.1,7.1-3.4l4.2,3.9c-1.4,1.6-3,2.9-5,3.8c-2,0.9-4.2,1.3-6.7,1.3C12.5,49.8,9.9,49.2,7.5,47.9z"/>
	<path class="st0" d="M36.6,47.9c-2.4-1.3-4.2-3-5.6-5.2c-1.3-2.2-2-4.7-2-7.5c0-2.8,0.7-5.3,2-7.5c1.3-2.2,3.2-4,5.6-5.2
		c2.4-1.3,5-1.9,8-1.9c2.9,0,5.6,0.6,7.9,1.9c2.3,1.3,4.2,3,5.6,5.2s2,4.7,2,7.5c0,2.8-0.7,5.3-2,7.5s-3.2,4-5.6,5.2
		c-2.4,1.3-5,1.9-7.9,1.9C41.7,49.8,39,49.2,36.6,47.9z M49.1,43c1.4-0.8,2.4-1.8,3.2-3.2c0.8-1.4,1.2-2.9,1.2-4.7
		c0-1.8-0.4-3.3-1.2-4.7c-0.8-1.4-1.8-2.5-3.2-3.2c-1.4-0.8-2.9-1.2-4.5-1.2c-1.7,0-3.2,0.4-4.5,1.2c-1.4,0.8-2.4,1.8-3.2,3.2
		c-0.8,1.4-1.2,2.9-1.2,4.7c0,1.8,0.4,3.3,1.2,4.7c0.8,1.4,1.8,2.5,3.2,3.2c1.4,0.8,2.9,1.2,4.5,1.2C46.3,44.2,47.8,43.8,49.1,43z"
		/>
	<path class="st0" d="M71.6,26.2v7.5h13.1V39H71.6v10.3h-6.6V20.9h21.4v5.3H71.6z"/>
	<path class="st0" d="M97.5,26.2v7.5h13.1V39H97.5v10.3H91V20.9h21.4v5.3H97.5z"/>
	<path class="st0" d="M138.8,44v5.3h-22V20.9h21.4v5.3h-14.9v6.2h13.2v5.1h-13.2V44H138.8z"/>
	<path class="st0" d="M166,44v5.3h-22V20.9h21.4v5.3h-14.9v6.2h13.2v5.1h-13.2V44H166z"/>
</g>
<g id="The">
	<g>
		<g>
			<path class="st1" d="M65.2,3.9h-5.4V0.7h14.7v3.2h-5.4v13.7h-3.9V3.9z"/>
		</g>
		<g>
			<path class="st1" d="M88.1,5.8c1,1,1.5,2.4,1.5,4.3v7.4h-3.8v-6.8c0-1-0.2-1.8-0.7-2.3c-0.4-0.5-1.1-0.8-2-0.8
				c-0.9,0-1.7,0.3-2.3,0.9c-0.6,0.6-0.8,1.5-0.8,2.6v6.4h-3.8V-0.3h3.8v6.3c0.5-0.5,1.1-0.9,1.8-1.1c0.7-0.3,1.5-0.4,2.3-0.4
				C85.8,4.4,87.1,4.9,88.1,5.8z"/>
		</g>
		<g>
			<path class="st1" d="M105.7,12.1h-9.8c0.2,0.8,0.6,1.4,1.3,1.9c0.7,0.5,1.5,0.7,2.5,0.7c0.7,0,1.3-0.1,1.8-0.3
				c0.5-0.2,1-0.5,1.5-1l2,2.2c-1.2,1.4-3,2.1-5.3,2.1c-1.5,0-2.8-0.3-3.9-0.9c-1.1-0.6-2-1.4-2.6-2.4s-0.9-2.2-0.9-3.4
				c0-1.3,0.3-2.4,0.9-3.4c0.6-1,1.4-1.8,2.5-2.4c1.1-0.6,2.2-0.9,3.5-0.9c1.3,0,2.4,0.3,3.4,0.8c1,0.5,1.8,1.3,2.4,2.3
				c0.6,1,0.9,2.2,0.9,3.6C105.8,11.2,105.8,11.5,105.7,12.1z M96.9,8c-0.6,0.5-0.9,1.1-1.1,2h6.4c-0.1-0.8-0.5-1.5-1.1-2
				c-0.6-0.5-1.3-0.7-2.1-0.7C98.2,7.2,97.5,7.5,96.9,8z"/>
		</g>
	</g>
</g>
</svg>
