<?xml version="1.0" encoding="utf-8"?>
<!-- Generator: Adobe Illustrator 21.1.0, SVG Export Plug-In . SVG Version: 6.00 Build 0)  -->
<svg version="1.1" id="Man" xmlns="http://www.w3.org/2000/svg" xmlns:xlink="http://www.w3.org/1999/xlink" x="0px" y="0px"
	 viewBox="0 0 61 166" style="enable-background:new 0 0 61 166;" xml:space="preserve">
<style type="text/css">
	.st0{fill:#8B4D28;}
</style>
<g>
	<g>
		<path class="st0" d="M48.7,60.7c-0.1,1.8-0.3,3.6-0.3,5.4c0,29.4-0.1,58.8-0.1,88.2c0,1.1,0.1,2.3,0,3.4c-0.4,4.6-4.2,8.4-8.2,8.3
			c-4.5-0.1-8.1-3.8-8.1-8.7c-0.1-12.6,0-25.1,0-37.7c0-2.8,0-5.7,0-8.5c-0.5-0.1-1-0.1-1.4-0.2c-0.2,1.8-0.6,3.5-0.6,5.3
			c-0.1,13.7,0,27.4,0,41.1c0,5.9-4,9.1-9.9,8.2c-3.7-0.6-5.9-2.7-6.4-6.4c-0.2-1.7-0.3-3.5-0.3-5.3c0-29,0-58,0-87.1
			c0-2.1-0.2-4.2-0.3-6.2c-0.4,0-0.7-0.1-1.1-0.1c-0.2,1.2-0.5,2.4-0.5,3.5c0,7.8,0.1,15.6-0.1,23.4c-0.1,3.2-0.7,6.4-4.8,6.9
			C4,94.6,2,93.7,1.3,91.2c-0.6-2.1-1-4.4-1-6.7c-0.1-12.7-0.1-25.4,0-38.1c0-9,3.6-12.6,12.6-12.6c12.4,0,24.9,0,37.3,0
			c7.1,0,11.2,4.1,11.2,11.2c0,12.3,0,24.6-0.2,36.9c0,2.6-0.5,5.3-1.1,7.8c-0.6,2.4-2.4,4.4-4.9,3.6c-1.7-0.5-3.9-2.5-4.1-4
			c-0.8-4.8-0.8-9.7-1-14.6c-0.1-4.7,0-9.4,0-14.1C49.6,60.7,49.2,60.7,48.7,60.7z"/>
	</g>
	<g>
		<path class="st0" d="M14.4,16.3C14.4,8.1,22.2,0,30.2,0C38,0,45.8,7.8,45.8,15.8c0.1,7.8-7.7,15.6-15.8,15.7
			C22,31.7,14.5,24.3,14.4,16.3z"/>
	</g>
</g>
</svg>
