<?xml version="1.0" encoding="utf-8"?>
<!-- Generator: Adobe Illustrator 21.1.0, SVG Export Plug-In . SVG Version: 6.00 Build 0)  -->
<svg version="1.1" xmlns="http://www.w3.org/2000/svg" xmlns:xlink="http://www.w3.org/1999/xlink" x="0px" y="0px"
	 viewBox="0 0 166 166" style="enable-background:new 0 0 166 166;" xml:space="preserve">
<style type="text/css">
	.st0{fill:none;stroke:#8B4D28;stroke-width:10;stroke-miterlimit:10;}
	.st1{fill:#BB9574;}
</style>
<g id="outerCircle">
	<circle class="st0" cx="83" cy="83" r="69"/>
</g>
<g id="thirtyFive">
	<g>
		<g>
			<path class="st1" d="M61.2,83.2c1.4,1.6,2.2,3.5,2.2,5.9c0,1.8-0.5,3.5-1.4,5c-0.9,1.5-2.4,2.7-4.3,3.6c-1.9,0.9-4.3,1.4-7.1,1.4
				c-2.2,0-4.3-0.3-6.4-0.9c-2.1-0.6-3.9-1.4-5.4-2.5l2.8-5.5c1.2,0.9,2.5,1.6,4.1,2.1c1.5,0.5,3.1,0.7,4.8,0.7c1.8,0,3.2-0.3,4.2-1
				c1-0.7,1.5-1.7,1.5-2.9c0-2.5-1.9-3.8-5.8-3.8h-3.3v-4.7l6.4-7.2H40.3v-5.8H62v4.6l-7,8C57.7,80.6,59.8,81.6,61.2,83.2z"/>
		</g>
		<g>
			<path class="st1" d="M86.5,81.8c2.1,1.7,3.1,4.1,3.1,7c0,1.9-0.5,3.6-1.4,5.2c-0.9,1.5-2.4,2.8-4.3,3.7c-1.9,0.9-4.3,1.4-7.1,1.4
				c-2.2,0-4.3-0.3-6.4-0.9c-2.1-0.6-3.9-1.4-5.4-2.5l2.8-5.5c1.2,0.9,2.5,1.6,4.1,2.1c1.5,0.5,3.1,0.7,4.7,0.7
				c1.8,0,3.2-0.4,4.2-1.1c1-0.7,1.5-1.7,1.5-3c0-1.3-0.5-2.3-1.6-3c-1.1-0.7-2.9-1-5.6-1h-7.9l1.6-17.4h18.9v5.8H74.8l-0.5,5.9h2.5
				C81.2,79.2,84.4,80.1,86.5,81.8z"/>
		</g>
		<g>
			<path class="st1" d="M93.7,82c-1.4-1.5-2.1-3.6-2.1-6.2c0-2.6,0.7-4.7,2.1-6.2c1.4-1.5,3.3-2.3,5.6-2.3c2.3,0,4.1,0.8,5.5,2.3
				c1.4,1.5,2.1,3.6,2.1,6.2c0,2.6-0.7,4.7-2.1,6.2c-1.4,1.5-3.3,2.3-5.5,2.3C97,84.3,95.2,83.5,93.7,82z M101.7,79.4
				c0.6-0.8,0.9-2,0.9-3.7c0-1.6-0.3-2.8-0.9-3.7c-0.6-0.8-1.4-1.2-2.4-1.2c-1,0-1.8,0.4-2.3,1.3c-0.6,0.8-0.9,2.1-0.9,3.6
				c0,1.6,0.3,2.8,0.9,3.7c0.6,0.8,1.4,1.3,2.3,1.3C100.3,80.7,101.1,80.3,101.7,79.4z M117.7,67.6h5.3l-21.1,31h-5.3L117.7,67.6z
				 M116.3,97.9c-1.2-0.7-2.1-1.7-2.7-3c-0.6-1.3-1-2.8-1-4.5c0-1.7,0.3-3.2,1-4.5c0.6-1.3,1.6-2.3,2.7-3c1.2-0.7,2.5-1,4-1
				c2.3,0,4.1,0.8,5.6,2.3c1.4,1.5,2.1,3.6,2.1,6.2c0,2.6-0.7,4.7-2.1,6.2c-1.4,1.5-3.3,2.3-5.6,2.3
				C118.8,98.9,117.5,98.5,116.3,97.9z M122.7,94c0.6-0.8,0.9-2.1,0.9-3.7c0-1.6-0.3-2.8-0.9-3.6c-0.6-0.8-1.4-1.3-2.4-1.3
				c-1,0-1.8,0.4-2.3,1.2c-0.6,0.8-0.9,2.1-0.9,3.7c0,1.6,0.3,2.8,0.9,3.7c0.6,0.8,1.4,1.2,2.3,1.2C121.3,95.3,122.1,94.8,122.7,94z
				"/>
		</g>
	</g>
</g>
</svg>
