<?xml version="1.0" encoding="utf-8"?>
<!-- Generator: Adobe Illustrator 21.1.0, SVG Export Plug-In . SVG Version: 6.00 Build 0)  -->
<svg version="1.1" xmlns="http://www.w3.org/2000/svg" xmlns:xlink="http://www.w3.org/1999/xlink" x="0px" y="0px"
	 viewBox="0 0 240 173" style="enable-background:new 0 0 240 173;" xml:space="preserve">
<style type="text/css">
	.st0{fill:#BB9574;}
	.st1{fill:none;}
	.st2{fill:#F9F8EF;}
	.st3{font-family:'Montserrat-SemiBold';}
	.st4{font-size:12px;}
	.st5{fill:#8B4D28;}
	.st6{fill:#4A2514;}
</style>
<g id="ETHIOPIA">
	<g>
		<rect y="144" class="st0" width="87" height="29"/>
	</g>
	<rect x="13.5" y="154" class="st1" width="60.5" height="10"/>
	<text transform="matrix(1 0 0 1 13.5 162.9043)" class="st2 st3 st4">ETHIOPIA</text>
</g>
<g id="INDONESIA">
	<g>
		<rect y="108" class="st0" width="97" height="29"/>
	</g>
	<rect x="11.5" y="118" class="st1" width="74.5" height="10"/>
	<text transform="matrix(1 0 0 1 11.5 126.9043)" class="st2 st3 st4">INDONESIA</text>
</g>
<g id="COLOMBIA">
	<g>
		<rect y="72" class="st5" width="148" height="29"/>
	</g>
	<rect x="38.5" y="82" class="st1" width="69.5" height="10"/>
	<text transform="matrix(1 0 0 1 38.5 90.9043)"><tspan x="0" y="0" class="st2 st3 st4">COLOM</tspan><tspan x="47.6" y="0" class="st2 st3 st4">-</tspan></text>
</g>
<g id="VIETNAM">
	<g>
		<rect y="36" class="st5" width="194" height="29"/>
	</g>
	<rect x="64.5" y="46" class="st1" width="60.5" height="10"/>
	<text transform="matrix(1 0 0 1 65.7466 54.9043)" class="st2 st3 st4">VIETNAM</text>
</g>
<g id="BRAZIL">
	<rect class="st6" width="240" height="29"/>
	<rect x="96.5" y="10" class="st1" width="46.5" height="10"/>
	<text transform="matrix(1 0 0 1 96.5 18.9043)" class="st2 st3 st4">BRAZIL</text>
</g>
</svg>
