<?xml version="1.0" encoding="utf-8"?>
<!-- Generator: Adobe Illustrator 21.1.0, SVG Export Plug-In . SVG Version: 6.00 Build 0)  -->
<svg version="1.1" id="Women" xmlns="http://www.w3.org/2000/svg" xmlns:xlink="http://www.w3.org/1999/xlink" x="0px" y="0px"
	 viewBox="0 0 75 166" style="enable-background:new 0 0 75 166;" xml:space="preserve">
<style type="text/css">
	.st0{fill:#BB9574;}
</style>
<g>
	<g>
		<path class="st0" d="M19.8,62c-0.6,1.4-1.4,2.8-1.9,4.2c-2.3,6.4-4.3,12.8-6.8,19.1c-1,2.5-2.5,5-4.4,6.9
			c-1.1,1.1-3.8,1.7-5.2,1.2C0.2,92.9-0.8,90.6-1,89c-0.2-1.8,0.4-3.7,1-5.5c4.4-13.3,8.9-26.6,13.4-39.9c2.3-6.7,6-9.5,13.1-9.6
			c8.3-0.1,16.6,0,24.9,0c4.9,0,8.4,2.2,9.9,6.7c4.9,14.4,9.5,28.8,14.1,43.3c0.6,1.7,0.8,3.9,0.3,5.5c-0.6,1.6-2.2,3.6-3.7,4
			c-1.5,0.4-4.1-0.5-5.1-1.8c-1.7-2.2-2.8-5-3.7-7.7c-2.4-6.9-4.5-13.8-6.8-20.7c-0.2-0.5-0.5-1-0.7-1.6c-0.4,0.1-0.9,0.2-1.3,0.4
			c4.4,15.8,8.8,31.6,13.3,47.9c-5.4,0-10.4,0-15.9,0c0,1.7,0,3,0,4.4c0,13.9,0,27.9,0,41.8c0,1.7-0.2,3.5-0.7,5.2
			c-1,3.1-3.3,4.7-6.6,4.5c-3.3-0.2-5.4-2.1-6.2-5.2c-0.4-1.7-0.4-3.5-0.4-5.2c0-13.4,0-26.9,0-40.3c0-1.6-0.2-3.1-0.4-4.7
			c-0.4,0-0.7,0-1.1,0c-0.2,1.5-0.5,2.9-0.5,4.4c0,14.2,0,28.4-0.1,42.6c0,5.8-2.8,8.8-7.7,8.5c-3.1-0.2-5.3-1.7-5.9-4.8
			c-0.4-2-0.5-4-0.5-6c0-14.8,0-29.6,0-45c-5.2,0-10.3,0-15.9,0c5.2-16.3,10.2-32,15.1-47.7C20.7,62.3,20.2,62.1,19.8,62z"/>
	</g>
	<g>
		<path class="st0" d="M38.9,0c7.8,0.1,15.6,8,15.6,16c0,8-8.1,15.7-16.3,15.7c-8-0.1-15.3-7.6-15.3-15.6C23,7.9,31-0.1,38.9,0z"/>
	</g>
</g>
</svg>
